<svg width="27" height="30" viewBox="0 0 27 30" fill="none" xmlns="http://www.w3.org/2000/svg">
<g clip-path="url(#clip0_25_38)">
<path d="M15.5598 9.5332C12.7063 9.63867 5.62819 10.4414 5.62819 16.418C5.62819 22.834 13.7317 23.0977 16.3801 18.9492C16.761 19.5469 18.4544 21.1465 19.0344 21.6914L22.3626 18.4102C22.3626 18.4102 20.47 16.9277 20.47 15.3164V6.69727C20.47 5.21484 19.0344 1.875 13.8899 1.875C8.73366 1.875 5.99733 5.09766 5.99733 7.98633L10.304 8.38477C11.259 5.48438 13.4798 5.48438 13.4798 5.48438C15.8645 5.47852 15.5598 7.23047 15.5598 9.5332ZM15.5598 14.6191C15.5598 19.3066 10.6262 18.6035 10.6262 15.627C10.6262 12.8613 13.5852 12.3047 15.5598 12.2402V14.6191ZM23.5286 24.1992C23.0774 24.7852 19.427 28.125 13.304 28.125C7.18092 28.125 2.49342 23.9355 1.05788 22.207C0.659438 21.7559 1.11647 21.5449 1.38014 21.7207C5.67506 24.3281 12.384 28.623 23.2063 23.4961C23.6458 23.2793 23.9856 23.6133 23.5286 24.1992ZM25.8606 24.3281C25.4797 25.2539 24.9231 25.8984 24.6184 26.1445C24.2962 26.4082 24.0618 26.3027 24.2376 25.9219C24.4133 25.541 25.3684 23.1973 24.9817 22.6992C24.6008 22.2129 22.8137 22.4473 22.1692 22.5117C21.5364 22.5703 21.4075 22.6289 21.3489 22.4941C21.2141 22.1602 22.6204 21.5859 23.5462 21.4688C24.4661 21.3633 25.9485 21.4219 26.2415 21.8027C26.4583 22.1016 26.2415 23.3906 25.8606 24.3281Z" fill="white"/>
</g>
<defs>
<clipPath id="clip0_25_38">
<rect width="26.25" height="30" fill="white" transform="translate(0.489746)"/>
</clipPath>
</defs>
</svg>
