<svg width="27" height="30" viewBox="0 0 27 30" fill="none" xmlns="http://www.w3.org/2000/svg">
<g clip-path="url(#clip0_25_42)">
<path d="M13.2246 8.26172C9.49805 8.26172 6.49219 11.2676 6.49219 14.9941C6.49219 18.7207 9.49805 21.7266 13.2246 21.7266C16.9512 21.7266 19.957 18.7207 19.957 14.9941C19.957 11.2676 16.9512 8.26172 13.2246 8.26172ZM13.2246 19.3711C10.8164 19.3711 8.84766 17.4082 8.84766 14.9941C8.84766 12.5801 10.8105 10.6172 13.2246 10.6172C15.6387 10.6172 17.6016 12.5801 17.6016 14.9941C17.6016 17.4082 15.6328 19.3711 13.2246 19.3711ZM21.8027 7.98633C21.8027 8.85938 21.0996 9.55664 20.2324 9.55664C19.3594 9.55664 18.6621 8.85352 18.6621 7.98633C18.6621 7.11914 19.3652 6.41602 20.2324 6.41602C21.0996 6.41602 21.8027 7.11914 21.8027 7.98633ZM26.2617 9.58008C26.1621 7.47656 25.6816 5.61328 24.1406 4.07812C22.6055 2.54297 20.7422 2.0625 18.6387 1.95703C16.4707 1.83398 9.97266 1.83398 7.80469 1.95703C5.70703 2.05664 3.84375 2.53711 2.30273 4.07227C0.761719 5.60742 0.287109 7.4707 0.181641 9.57422C0.0585938 11.7422 0.0585938 18.2402 0.181641 20.4082C0.28125 22.5117 0.761719 24.375 2.30273 25.9102C3.84375 27.4453 5.70117 27.9258 7.80469 28.0312C9.97266 28.1543 16.4707 28.1543 18.6387 28.0312C20.7422 27.9316 22.6055 27.4512 24.1406 25.9102C25.6758 24.375 26.1563 22.5117 26.2617 20.4082C26.3848 18.2402 26.3848 11.748 26.2617 9.58008ZM23.4609 22.7344C23.0039 23.8828 22.1191 24.7676 20.9648 25.2305C19.2363 25.916 15.1348 25.7578 13.2246 25.7578C11.3145 25.7578 7.20703 25.9102 5.48438 25.2305C4.33594 24.7734 3.45117 23.8887 2.98828 22.7344C2.30273 21.0059 2.46094 16.9043 2.46094 14.9941C2.46094 13.084 2.30859 8.97656 2.98828 7.25391C3.44531 6.10547 4.33008 5.2207 5.48438 4.75781C7.21289 4.07227 11.3145 4.23047 13.2246 4.23047C15.1348 4.23047 19.2422 4.07812 20.9648 4.75781C22.1133 5.21484 22.998 6.09961 23.4609 7.25391C24.1465 8.98242 23.9883 13.084 23.9883 14.9941C23.9883 16.9043 24.1465 21.0117 23.4609 22.7344Z" fill="white"/>
</g>
<defs>
<clipPath id="clip0_25_42">
<rect width="26.25" height="30" fill="white" transform="translate(0.09375)"/>
</clipPath>
</defs>
</svg>
