<svg width="30" height="30" viewBox="0 0 30 30" fill="none" xmlns="http://www.w3.org/2000/svg">
<g clip-path="url(#clip0_25_36)">
<path d="M15.4688 0.46875C7.44727 0.46875 0.9375 6.97852 0.9375 15C0.9375 23.0215 7.44727 29.5312 15.4688 29.5312C23.4902 29.5312 30 23.0215 30 15C30 6.97852 23.4902 0.46875 15.4688 0.46875ZM21.3691 21.8496C21.123 21.8496 20.9707 21.7734 20.7422 21.6387C17.0859 19.4355 12.832 19.3418 8.63086 20.2031C8.40234 20.2617 8.10352 20.3555 7.93359 20.3555C7.36523 20.3555 7.00781 19.9043 7.00781 19.4297C7.00781 18.8262 7.36523 18.5391 7.80469 18.4453C12.6035 17.3848 17.5078 17.4785 21.6914 19.9805C22.0488 20.209 22.2598 20.4141 22.2598 20.9473C22.2598 21.4805 21.8438 21.8496 21.3691 21.8496ZM22.9453 18.0059C22.6406 18.0059 22.4355 17.8711 22.2246 17.7598C18.5625 15.5918 13.1016 14.7188 8.24414 16.0371C7.96289 16.1133 7.81055 16.1895 7.54688 16.1895C6.91992 16.1895 6.41016 15.6797 6.41016 15.0527C6.41016 14.4258 6.71484 14.0098 7.31836 13.8398C8.94727 13.3828 10.6113 13.043 13.0488 13.043C16.8516 13.043 20.5254 13.9863 23.4199 15.709C23.8945 15.9902 24.082 16.3535 24.082 16.8633C24.0762 17.4961 23.584 18.0059 22.9453 18.0059ZM24.7617 13.541C24.457 13.541 24.2695 13.4648 24.0059 13.3125C19.834 10.8223 12.375 10.2246 7.54688 11.5723C7.33594 11.6309 7.07227 11.7246 6.79102 11.7246C6.01758 11.7246 5.42578 11.1211 5.42578 10.3418C5.42578 9.54492 5.91797 9.09375 6.44531 8.94141C8.50781 8.33789 10.8164 8.05078 13.3301 8.05078C17.6074 8.05078 22.0898 8.94141 25.3652 10.8516C25.8223 11.1152 26.1211 11.4785 26.1211 12.1758C26.1211 12.9727 25.4766 13.541 24.7617 13.541Z" fill="white"/>
</g>
<defs>
<clipPath id="clip0_25_36">
<rect width="29.0625" height="30" fill="white" transform="translate(0.9375)"/>
</clipPath>
</defs>
</svg>
